HIERARCHY
ROOT root
{
	OFFSET	0	13.1	24.9
	CHANNELS 6  Xposition Yposition Zposition Xrotation Yrotation Zrotation
	JOINT spine_1
	{
		OFFSET	0	9.99999	0
		CHANNELS 3  Xrotation Yrotation Zrotation
		JOINT spine_2
		{
			OFFSET	0	112	-10
			CHANNELS 3  Xrotation Yrotation Zrotation
			JOINT spine_3
			{
				OFFSET	0	206.5	19.3
				CHANNELS 3  Xrotation Yrotation Zrotation
				JOINT spine_4
				{
					OFFSET	0	110.4	14.6
					CHANNELS 3  Xrotation Yrotation Zrotation
					JOINT neck_1
					{
						OFFSET	0	71.8	-50.3
						CHANNELS 3  Xrotation Yrotation Zrotation
						JOINT neck_2
						{
							OFFSET	0	86.2	-25.8
							CHANNELS 3  Xrotation Yrotation Zrotation
							JOINT head_ee
							{
								OFFSET	0	179.8	-8.7
								CHANNELS 3  Xrotation Yrotation Zrotation
								End Site
								{
									OFFSET	1	0	0
								}
							}
						}
					}
					JOINT left_clavicle
					{
						OFFSET	-43.2	22.4	-70.8
						CHANNELS 3  Xrotation Yrotation Zrotation
						JOINT left_shoulder
						{
							OFFSET	-93.9	-5.79999	48.7
							CHANNELS 3  Xrotation Yrotation Zrotation
							JOINT left_elbow
							{
								OFFSET	-291.4	-30.8	15.2
								CHANNELS 3  Xrotation Yrotation Zrotation
								JOINT left_lowarm_twist
								{
									OFFSET	-110.7	-3.89999	13.6
									CHANNELS 3  Xrotation Yrotation Zrotation
									JOINT left_hand
									{
										OFFSET	-110.7	-3.89999	13.6
										CHANNELS 3  Xrotation Yrotation Zrotation
										JOINT left_ee
										{
											OFFSET	-80.8	-5.10001	12.1
											CHANNELS 3  Xrotation Yrotation Zrotation
											End Site
											{
												OFFSET	1	0	0
											}
										}
									}
								}
							}
						}
					}
					JOINT right_clavicle
					{
						OFFSET	43.2	22.4	-70.8
						CHANNELS 3  Xrotation Yrotation Zrotation
						JOINT right_shoulder
						{
							OFFSET	93.9	-5.79999	48.7
							CHANNELS 3  Xrotation Yrotation Zrotation
							JOINT right_elbow
							{
								OFFSET	291.4	-30.8	15.2
								CHANNELS 3  Xrotation Yrotation Zrotation
								JOINT right_lowarm_twist
								{
									OFFSET	110.7	-3.89999	13.6
									CHANNELS 3  Xrotation Yrotation Zrotation
									JOINT right_hand
									{
										OFFSET	110.7	-3.89999	13.6
										CHANNELS 3  Xrotation Yrotation Zrotation
										JOINT right_ee
										{
											OFFSET	80.8	-5.10001	12.1
											CHANNELS 3  Xrotation Yrotation Zrotation
											End Site
											{
												OFFSET	1	0	0
											}
										}
									}
								}
							}
						}
					}
				}
			}
		}
	}
	JOINT left_hip
	{
		OFFSET	-82.8	-127.5	0.300001
		CHANNELS 3  Xrotation Yrotation Zrotation
		JOINT left_knee
		{
			OFFSET	-28.2	-396.7	2.2
			CHANNELS 3  Xrotation Yrotation Zrotation
			JOINT left_ankle
			{
				OFFSET	-11.7	-411.3	35.4
				CHANNELS 3  Xrotation Yrotation Zrotation
				JOINT left_toes
				{
					OFFSET	0	-60	-88.6
					CHANNELS 3  Xrotation Yrotation Zrotation
					JOINT left_foot_ee
					{
						OFFSET	-22.5	-16.5	-42.2
						CHANNELS 3  Xrotation Yrotation Zrotation
						End Site
						{
							OFFSET	1	0	0
						}
					}
				}
			}
		}
	}
	JOINT right_hip
	{
		OFFSET	82.8	-127.5	0.300001
		CHANNELS 3  Xrotation Yrotation Zrotation
		JOINT right_knee
		{
			OFFSET	28.2	-396.7	2.2
			CHANNELS 3  Xrotation Yrotation Zrotation
			JOINT right_ankle
			{
				OFFSET	11.7	-411.3	35.4
				CHANNELS 3  Xrotation Yrotation Zrotation
				JOINT right_toes
				{
					OFFSET	0	-60	-88.6
					CHANNELS 3  Xrotation Yrotation Zrotation
					JOINT right_foot_ee
					{
						OFFSET	22.5	-16.5	-42.2
						CHANNELS 3  Xrotation Yrotation Zrotation
						End Site
						{
							OFFSET	1	0	0
						}
					}
				}
			}
		}
	}
}
MOTION
Frames: 11
Frame Time: 0.02
2565.42 601.124 -1683.14 0.928951 74.3485 -0.405125 -0.682411 0.379474 -0.0562017 -0.682491 0.382281 -0.0319406 -0.68276 0.379844 0.0536495 -0.682559 0.383549 -0.00701386 -12.8026 18.2219 4.99425 -13.4319 31.5839 10.4123 -0.0 0.0 -0.0 2.04585 23.7886 5.5338 -19.6375 -9.29342 73.5944 1.18738 -30.4627 0.323313 -26.483 -1.64129 2.93094 -0.354226 28.0283 9.04625 -0.0 0.0 -0.0 12.7938 23.6747 -25.4525 15.2356 10.8268 -69.3582 3.24105 58.0702 -1.79947 -31.552 2.10075 -3.39031 0.101914 -9.94354 -4.77468 0.0 0.0 0.0 36.2177 18.5511 -16.9129 2.531 -0.11247 -0.372051 -9.17973 -28.257 1.71046 -7.71764 0.0 0.0 -0.0 0.0 -0.0 -6.58274 23.6321 -3.55561 -41.9445 0.59509 -6.26833 39.8751 7.34217 4.9603 -12.3858 0.0 0.0 0.0 0.0 0.0 
2544.81 610.262 -1679.95 -1.22545 74.4999 1.88662 -0.731418 0.330543 -0.03642 -0.731478 0.332191 -0.0153127 -0.731608 0.327262 0.0590313 -0.731459 0.332478 0.00660493 -10.6278 17.7688 6.31981 -10.8895 29.4324 10.8498 -0.0 0.0 -0.0 1.88712 24.4293 5.35106 -17.1339 -9.38758 73.8906 1.27924 -32.361 0.371196 -27.7787 -1.75482 3.05217 -0.748735 27.2565 6.57236 -0.0 0.0 -0.0 12.8815 23.7896 -25.644 14.045 10.5991 -68.739 2.87603 54.9243 -1.49498 -31.4782 2.09377 -3.38391 0.623788 -8.68015 -7.65274 0.0 0.0 0.0 37.3623 20.0371 -16.9992 -1.24271 0.0491705 0.184369 -10.7537 -26.5593 1.96562 -6.01713 0.0 0.0 -0.0 0.0 -0.0 -4.58878 23.0286 -4.82384 -42.4671 0.631137 -6.34015 39.822 4.02328 4.90236 -12.8513 0.0 0.0 0.0 0.0 0.0 
2521.79 619.01 -1682.79 -3.86731 74.326 5.13336 -0.780529 0.190685 0.0270595 -0.780548 0.188577 0.0391385 -0.780427 0.175062 0.0802904 -0.780388 0.185545 0.0516349 -8.81567 18.8997 7.2241 -8.88563 30.5342 11.5155 -0.0 0.0 -0.0 2.01264 24.5297 5.52482 -15.4129 -8.12336 72.82 1.24415 -31.6447 0.352595 -28.1887 -1.79132 3.09 -0.909863 24.2842 4.45235 -0.0 0.0 -0.0 12.8113 22.9775 -25.5604 11.7394 11.9961 -70.0597 2.77888 53.9939 -1.41593 -31.1635 2.06411 -3.35655 0.961059 -7.65975 -9.4677 0.0 0.0 0.0 37.8969 22.0783 -18.2658 -1.3682 0.0539131 0.203043 -13.0534 -26.5213 2.39179 -4.76124 0.0 0.0 -0.0 0.0 -0.0 -3.03144 23.2507 -5.50112 -43.9029 0.73355 -6.53581 39.3884 0.452752 4.82646 -11.6987 0.0 0.0 0.0 0.0 0.0 
2510.72 616.388 -1681.89 -6.66546 73.7856 8.62959 -0.707485 0.107079 -0.0277209 -0.707491 0.108626 -0.020851 -0.707536 0.110543 0.00381073 -0.707519 0.109758 -0.0136954 -5.02336 20.0704 7.71148 -4.6949 31.304 11.2516 -0.0 0.0 -0.0 2.35039 23.2779 5.92919 -13.5759 -6.97525 72.4294 1.19922 -30.7117 0.329337 -27.9152 -1.76694 3.06479 -0.996115 21.7751 2.89407 -0.0 0.0 -0.0 12.7875 22.5557 -25.5443 12.7599 13.645 -70.6629 2.48301 50.8808 -1.18131 -31.1281 2.06079 -3.35346 1.24674 -7.03333 -11.1183 0.0 0.0 0.0 39.9109 23.3553 -19.7023 -2.09703 0.0806458 0.3117 -15.0536 -25.721 2.7369 -3.98909 0.0 0.0 -0.0 0.0 -0.0 -2.37089 23.3904 -5.45065 -44.7153 0.793671 -6.64539 40.9559 -1.12707 4.94984 -10.6159 0.0 0.0 0.0 0.0 0.0 
2490.68 626.406 -1677.93 -7.85355 72.8456 10.4054 -0.907672 -0.0205109 -0.0264051 -0.907672 -0.0187891 -0.0276568 -0.907663 -0.0120642 -0.0311831 -0.907664 -0.0168376 -0.0288864 -2.31518 21.0674 7.56017 -1.69493 32.3916 10.5958 -0.0 0.0 -0.0 2.71072 22.053 6.38903 -11.7677 -5.90813 72.3079 1.17725 -30.2486 0.318193 -27.4218 -1.72328 3.01903 -1.00323 19.4995 1.87372 -0.0 0.0 -0.0 12.6392 22.2651 -25.227 11.8039 13.9592 -71.235 2.3124 48.8726 -1.05083 -31.3975 2.08615 -3.37692 1.53591 -6.62076 -12.8927 0.0 0.0 0.0 40.9261 24.3396 -20.7341 -3.39181 0.124716 0.50552 -16.8196 -25.4457 3.05183 -3.36906 0.0 0.0 -0.0 0.0 -0.0 -1.66926 23.8591 -5.77547 -44.8731 0.805528 -6.66657 40.7763 -2.10372 4.93 -9.33178 0.0 0.0 0.0 0.0 0.0 
2461.97 632.388 -1672.8 -7.67148 72.7152 10.8082 -1.00952 -0.189178 -0.0309831 -1.00953 -0.186823 -0.0429583 -1.0094 -0.172163 -0.0843102 -1.00936 -0.183318 -0.0560621 -1.0294 21.1145 7.97606 -0.30247 31.6977 10.7604 -0.0 0.0 -0.0 2.91737 21.3191 6.66239 -10.7236 -6.0655 72.0162 1.15423 -29.7586 0.306679 -27.1912 -1.703 2.99752 -0.912465 17.5859 1.59478 -0.0 0.0 -0.0 12.4307 21.5639 -24.8053 10.0307 13.9885 -70.9539 2.11139 46.2801 -0.902414 -30.9888 2.0477 -3.34128 1.79006 -6.41157 -14.5261 0.0 0.0 0.0 40.9226 25.8184 -21.9743 -5.39354 0.184192 0.806952 -18.4269 -24.9528 3.32681 -1.01769 0.0 0.0 -0.0 0.0 -0.0 -1.33352 24.2961 -6.21947 -46.863 0.960069 -6.93092 39.3252 -3.07085 4.80175 -8.4301 0.0 0.0 0.0 0.0 0.0 
2435.82 634.602 -1670.13 -5.31931 72.2581 9.12142 -1.12591 -0.186199 -0.0948988 -1.12592 -0.179783 -0.106555 -1.12558 -0.150554 -0.144946 -1.12557 -0.171556 -0.119349 0.745076 21.3651 7.0509 1.64252 32.2812 9.43349 -0.0 0.0 -0.0 2.99004 23.1003 6.81041 -9.72789 -5.80073 71.6175 1.23942 -31.5474 0.350119 -27.7839 -1.75528 3.05265 -0.977845 15.0122 0.0782569 -0.0 0.0 -0.0 12.1088 19.6307 -24.2095 8.54201 13.7602 -71.58 2.0122 44.9026 -0.83155 -30.4249 1.99509 -3.29169 2.23671 -6.5532 -17.6235 0.0 0.0 0.0 38.9584 27.398 -22.3379 -7.56853 0.236829 1.13656 -10.4469 -25.4552 1.88337 1.14668 -0.0 -0.0 -0.0 0.0 -0.0 -1.61022 24.3086 -5.76506 -46.0932 0.89919 -6.82928 40.1554 -1.86171 4.87823 -7.74885 0.0 0.0 0.0 0.0 0.0 
2406.97 639.846 -1661.35 -3.19408 70.6977 7.42607 -1.15588 -0.19999 -0.229598 -1.15587 -0.184975 -0.241858 -1.15505 -0.124435 -0.277897 -1.15512 -0.166762 -0.254757 2.63578 21.6732 6.30995 3.73257 32.7772 8.26802 -0.0 0.0 -0.0 3.30485 22.2001 7.23596 -9.21252 -6.63914 71.3773 1.20636 -30.8611 0.33299 -28.2249 -1.79455 3.09333 -0.843982 14.9901 0.897419 -0.0 0.0 -0.0 11.944 17.9534 -23.9356 6.34494 13.374 -71.1565 1.90007 43.2617 -0.753533 -29.9872 1.95458 -3.25283 2.53905 -4.88169 -19.1057 0.0 0.0 0.0 37.6684 28.8633 -23.3512 -10.0374 0.281364 1.51275 -5.72773 -24.7332 1.01541 2.74805 -0.0 -0.0 -0.0 0.0 -0.0 -3.18544 23.9602 -4.76183 -47.6768 1.02591 -7.03748 40.2429 -2.10639 4.88465 -7.54969 0.0 0.0 0.0 0.0 0.0 
2373.32 650.319 -1657.15 0.844393 70.5706 3.70352 -1.29584 -0.296775 -0.391775 -1.29579 -0.271244 -0.409866 -1.29374 -0.168668 -0.461642 -1.29396 -0.239458 -0.429212 1.9184 20.7769 7.22042 2.81818 30.6582 9.38742 -0.0 0.0 -0.0 4.16419 23.4168 8.44627 -8.54941 -7.63457 69.9467 1.24841 -31.7324 0.354837 -29.8434 -1.94134 3.24 -0.969494 12.1111 -1.14025 -0.0 0.0 -0.0 12.0589 16.6936 -24.2638 2.89939 11.7593 -70.22 1.73578 40.6871 -0.643627 -32.0601 2.14901 -3.43409 2.50953 -4.21172 -18.6498 0.0 0.0 0.0 37.2603 31.9485 -25.4538 -15.8798 0.321946 2.40788 0.704132 -29.383 -0.130131 3.36262 -0.0 -0.0 -0.0 0.0 -0.0 -1.53736 24.4765 -5.78766 -53.0282 1.496 -7.71405 40.392 -2.76681 4.89496 -5.23744 0.0 0.0 0.0 0.0 0.0 
2344.48 650.868 -1656.5 3.61664 70.6588 1.24793 -1.07909 -0.320425 -0.554135 -1.07897 -0.284515 -0.5734 -1.07592 -0.145979 -0.623238 -1.07638 -0.242574 -0.592363 0.673385 19.9704 8.4296 1.4002 28.6336 10.8671 -0.0 0.0 -0.0 4.42186 23.4842 8.80423 -5.71974 -10.2853 67.9924 1.26354 -32.0418 0.362826 -31.5897 -2.10432 3.39357 -0.892525 10.1198 -1.52367 -0.0 0.0 -0.0 11.6677 13.9218 -23.4743 0.469017 10.0699 -70.1962 1.63822 39.0571 -0.581076 -32.7208 2.21236 -3.49038 2.41034 -4.16882 -17.9424 0.0 0.0 0.0 37.3153 34.6853 -27.2278 -20.901 0.28384 3.17711 6.36005 -30.3016 -1.16715 5.91282 -0.0 -0.0 -0.0 0.0 -0.0 -1.41704 25.3894 -6.09425 -55.6653 1.75055 -8.03086 40.1381 -2.33199 4.87477 -5.13569 0.0 0.0 0.0 0.0 0.0 
2322.29 648.375 -1652.6 4.96888 69.4192 0.329311 -1.27718 -0.204718 -0.763047 -1.27687 -0.15575 -0.774526 -1.27445 0.0280801 -0.789531 -1.2753 -0.09696 -0.784057 -0.177371 19.6108 8.4383 0.47895 28.2763 10.9804 -0.0 0.0 -0.0 4.68261 23.1728 9.17662 -4.59957 -11.6606 67.0273 1.35894 -33.9459 0.414788 -31.1985 -2.0674 3.3596 -0.521756 8.13725 0.00650195 -0.0 0.0 -0.0 11.66 13.3337 -23.4721 -1.06828 8.8914 -69.6976 1.55257 37.5612 -0.527981 -33.2297 2.26158 -3.53324 2.9799 -4.32087 -22.0123 0.0 0.0 0.0 38.7619 35.9925 -30.2686 -26.2219 0.170137 3.98542 11.761 -30.8144 -2.12405 4.64027 -0.0 -0.0 -0.0 0.0 -0.0 -1.24659 24.5684 -5.51094 -57.6353 1.95013 -8.2598 39.0087 -2.12033 4.77731 -4.79995 0.0 0.0 0.0 0.0 0.0 
